#!OML:ASF F:\VICON\USERDATA\INSTALL\rory3\rory3.ASF
:FULLY-SPECIFIED
:DEGREES
36
root 0.3188133133298669 17.77434299708552 5.880000794430896 -1.6654989808532445 1.9839769491432704 1.5366965776450625
lfemur 16.3693019560973 -4.935747285132706 -25.671785766032972
ltibia 22.535643756110133
lfoot -6.989329505529674 -6.61947150501472
ltoes -18.114911953833175
rfemur -27.79922104628644 5.206580736685569 19.399430707231343
rtibia 22.872081841706198
rfoot -4.063597027588801 -5.703924596601814
rtoes -1.2341413262814505
lowerback 9.181287668335482 -1.646051872614545 -3.778669954221293
upperback 0.23437605214065554 -2.5059643404812855 1.906112918880787
thorax -4.6646421188337825 -1.1415852473596544 4.1652477387680005
lowerneck -16.98872261010259 -2.7132582275691415 -2.1148606008245268
upperneck 21.49896222456004 -3.3191505353649693 0.1014275051872442
head 9.656416890472714 -1.677586211680771 -0.009622972613782976
lclavicle -2.163830126759455e-15 7.136017632289908e-16
lhumerus -22.911710986079747 -4.073234511736288 82.67150254724393
lradius 31.899341981369197
lwrist 7.857510331357075
lhand -29.35269692101705 24.0733008478556
lfingers 7.12502
lthumb -2.692228149798427 54.030278389492004
rclavicle -2.163830126759455e-15 7.136017632289908e-16
rhumerus -33.48046336016094 -28.23058359167831 -73.37168135519485
rradius 19.508579219639483
rwrist 13.477917640275884
rhand -17.890552042420886 21.285882499046416
rfingers 7.12502
rthumb 8.375847610888068 -8.52433183775413
37
root 0.23646337622583077 17.85644532232321 8.687859551391721 -2.1573135267234416 2.0233742561514965 0.1402739250784335
lfemur 14.11756155356192 -4.548383009544104 -22.640585414105157
ltibia 33.196424374872066
lfoot 1.0140581711530503 -10.646484888104627
ltoes -18.54225704507292
rfemur -25.067446511735405 5.118206245654467 22.541534738919456
rtibia 27.776826042596827
rfoot -2.8162444156120374 -3.087044078640348
rtoes 4.079790595543415
lowerback 9.225213296289887 -1.566872010924779 -2.054580278726319
upperback 0.22547572585295458 -2.1908153701875968 2.445337094232242
thorax -4.696152814788471 -1.0169745169275017 3.9366720677614637
lowerneck -16.856637231328442 -2.6379659822817247 -2.0519985009705644
upperneck 21.67830118437965 -3.1930419665216467 -0.016887179711589928
head 9.698833242656093 -1.634503312010934 -0.024567832326709976
lclavicle -1.20125936754424e-15 1.59991925475436e-15
lhumerus -24.380368730915258 -2.825811656334638 83.2242452916869
lradius 31.565400138673077
lwrist 7.859982410981568
lhand -28.766253071451914 24.548470003929793
lfingers 7.12502
lthumb -2.1258418950949234 54.50810476209359
rclavicle -1.20125936754424e-15 1.59991925475436e-15
rhumerus -33.78826630788141 -29.228352471601468 -72.21500726374568
rradius 19.01908245889156
rwrist 15.022925182574948
rhand -17.62322878654995 21.433979090853608
rfingers 7.12502
rthumb 8.633825066078057 -8.369250502075932
38
root 0.14367745762127465 17.961157282473255 10.092990937972367 -2.6544069980618112 2.0531740511700396 -1.414143708928775
lfemur 9.566847412160694 -3.6747544503172493 -19.503734547616126
ltibia 44.25633829677257
lfoot 9.50310450661695 -14.635961961960072
ltoes -14.250051916526795
rfemur -22.0720988090971 5.280779436792294 25.290973144931716
rtibia 30.01241841580535
rfoot -3.6788190430239336 -2.66133884155473
rtoes 7.6765753473862866
lowerback 9.351108348649 -1.4958423517020827 -0.5366944777368758
upperback 0.23338710753972663 -1.906298974947756 2.881037168426141
thorax -4.779750659102109 -0.9037940488766607 3.5718468971862944
lowerneck -16.707948716901967 -2.6268402390103534 -2.003281948354973
upperneck 21.743679185785883 -3.1824156569133737 -0.012228604400599807
head 9.694085529659445 -1.6306317521038096 -0.026015758501516384
lclavicle -9.222033457021535e-16 1.856459872050817e-15
lhumerus -26.075643567453735 -2.474708402810305 83.79339118943797
lradius 31.001339009802788
lwrist 7.547419046359153
lhand -27.84468729106088 24.851832930263843
lfingers 7.12502
lthumb -1.2358054339851263 54.81826870239931
rclavicle -9.222033457021535e-16 1.856459872050817e-15
rhumerus -33.75659135913243 -28.942721140388443 -72.20879524469353
rradius 19.112532983073674
rwrist 14.8433955067913
rhand -17.31844048391161 21.793030909349405
rfingers 7.12502
rthumb 8.92795795446515 -7.9994884690929515
39
root 0.04502745876334546 18.062573655125565 9.873473135477731 -3.1214964208622984 1.891006527876145 -2.9666727950827587
lfemur 3.230363303895315 -2.5879417115853443 -17.17526997964923
ltibia 53.41423375270201
lfoot 14.342666500070212 -16.972863259485223
ltoes -8.677602809113342
rfemur -19.58987528349261 5.4567785429732965 27.102529004277823
rtibia 29.47957260127526
rfoot -5.771478545308137 -3.719663790450284
rtoes 9.111363770955943
lowerback 9.502576483461585 -1.4222296645842296 0.421615467512628
upperback 0.25751517943096663 -1.6802202678607951 3.089250852305524
thorax -4.898220175993602 -0.8103960848178235 3.0282519132453163
lowerneck -16.616228440932648 -2.7091472170625046 -1.9975078009732006
upperneck 21.660797182939156 -3.3328771999501274 0.1189340732559967
head 9.642348492200584 -1.6830781063943632 -0.015582227592751435
lclavicle -1.844615862167279e-15 1.0069989794565687e-15
lhumerus -27.697113876554646 -3.0747066876551594 84.2815656074388
lradius 29.938633874022653
lwrist 6.50830910004434
lhand -26.837713938754465 25.025660672366357
lfingers 7.12502
lthumb -0.26333677565395214 54.9970913318401
rclavicle -1.844615862167279e-15 1.0069989794565687e-15
rhumerus -33.42082644415059 -27.946602735722408 -73.32156156240305
rradius 19.397300792826034
rwrist 13.332417256089276
rhand -17.128122969328253 22.28448793860716
rfingers 7.12502
rthumb 9.111625496660485 -7.498335979141653
40
root -0.018174538575618238 18.163873728832296 10.85277504075213 -3.4708166800522324 1.6973474000735767 -3.9826851669656
lfemur -2.3838293086474778 -1.1157386042824424 -15.008209517154786
ltibia 62.33433049019298
lfoot 14.719973157247424 -15.999587363570795
ltoes -5.0055379420072
rfemur -16.012252414512332 5.839937709919623 29.025358631274187
rtibia 29.271424174514628
rfoot -7.56086225740649 -4.676018482004479
rtoes 9.605473221785147
lowerback 9.664982197912837 -1.112724310864695 1.4840060808318463
upperback 0.3585303756750874 -1.1461730595822428 3.2007243166142088
thorax -4.92942151436181 -0.5686524081689779 2.5556349669208567
lowerneck -16.445522606915002 -2.814085072962282 -1.9657104855181404
upperneck 21.60284480255864 -3.5249162206239495 0.41113466877303345
head 9.604812809337842 -1.7491055503652586 0.03973598084605931
lclavicle -1.6486278478354502e-15 1.1868927119088035e-15
lhumerus -28.52927200161616 -3.3107284084557254 84.72001681013361
lradius 28.895092355932963
lwrist 5.402610163530258
lhand -26.214270781300414 25.16471248481406
lfingers 7.12502
lthumb 0.3387304162759226 55.13917205346233
rclavicle -1.6486278478354502e-15 1.1868927119088035e-15
rhumerus -32.42647575762101 -26.175959786257078 -74.66029714085028
rradius 19.86416262655922
rwrist 12.03642095254608
rhand -16.874495619453516 23.13016686521442
rfingers 7.12502
rthumb 9.356394532641845 -6.643307266353924
41
root -0.06214473046798363 18.231698486863475 11.032161700681216 -3.72030917061465 1.1184681348673196 -4.6769172797937735
lfemur -8.103583816587294 0.5233438603316838 -13.823873384454625
ltibia 68.57752028269175
lfoot 10.39629317687978 -12.88504947339992
ltoes -4.546322798327293
rfemur -12.78255178654603 6.214619939013643 30.375501138649064
rtibia 28.53129239175776
rfoot -9.629793856703353 -5.6001919615753915
rtoes 9.04295418400288
lowerback 9.738790363769482 -0.6624095088608765 2.256825471318654
upperback 0.473243457911683 -0.46645633369230466 3.1062626177570936
thorax -4.911988097263145 -0.2506431176231335 1.9632772263047777
lowerneck -16.26939637808204 -2.9131156231675894 -1.929899812779444
upperneck 21.57314085870106 -3.710055751612308 0.6720620054959401
head 9.57634227214581 -1.8118105786522218 0.08126441922281111
lclavicle -1.708104767951211e-15 1.132207411990319e-15
lhumerus -29.35681630240304 -3.189510326866003 84.8795183706358
lradius 27.904091282541884
lwrist 4.41690485608731
lhand -26.21921962315464 25.11972880260016
lfingers 7.12502
lthumb 0.33398359196380445 55.098203646206436
rclavicle -1.708104767951211e-15 1.132207411990319e-15
rhumerus -31.21939340263219 -24.18018205945474 -76.20660673611187
rradius 20.40901067756389
rwrist 10.76363863673377
rhand -16.770663866750173 23.162968516822072
rfingers 7.12502
rthumb 9.456611828552553 -6.603782418654595
42
root -0.08153567425914193 18.26145651997661 11.247694338938206 -3.832081938243124 0.2924034656297465 -5.021851772634694
lfemur -12.990132729769881 2.024130003965636 -13.298873584636757
ltibia 71.85583584550409
lfoot 4.644746313191205 -9.102500426114831
ltoes -5.259633157800307
rfemur -9.765513044145557 6.4437464847387655 31.413946308470784
rtibia 28.61795059150349
rfoot -11.437435885336921 -5.9318644187335785
rtoes 8.442101493489359
lowerback 9.807986202748715 -0.08987803878494693 2.973952072489654
upperback 0.5494394100801878 0.3647886977922701 2.9018474184189142
thorax -4.89951079231281 0.14134381973301663 1.3350074413921802
lowerneck -16.15050621935267 -2.97988406106965 -1.8693211096831879
upperneck 21.58795876027198 -3.8395213586449053 0.8535918705498599
head 9.569942440160258 -1.854187117757256 0.10570702458920421
lclavicle -1.479583206892344e-15 1.3442655884978574e-15
lhumerus -30.180891312655454 -2.5257772208998643 84.87529707046967
lradius 27.218959338412645
lwrist 4.2874098708921125
lhand -26.366222000836558 24.941726061775974
lfingers 7.12502
lthumb 0.1920582622916196 54.92401740299774
rclavicle -1.479583206892344e-15 1.3442655884978574e-15
rhumerus -29.91144150554516 -21.935185209913673 -77.60534591992557
rradius 21.178838357686963
rwrist 9.577877870386544
rhand -16.817102201596878 22.330994226261033
rfingers 7.12502
rthumb 9.411816282014923 -7.435504888456225
